<?xml version="1.0" encoding="us-ascii" standalone="no"?><svg xmlns="http://www.w3.org/2000/svg" xmlns:xlink="http://www.w3.org/1999/xlink" contentStyleType="text/css" height="1089px" preserveAspectRatio="none" style="width:484px;height:1089px;background:#FFFFFF;" version="1.1" viewBox="0 0 484 1089" width="484px" zoomAndPan="magnify"><defs/><g><rect fill="#FFFFFF" height="512.9922" style="stroke:#181818;stroke-width:1.0;" width="10" x="314" y="289.2266"/><rect fill="#FFFFFF" height="14" style="stroke:#181818;stroke-width:1.0;" width="10" x="405" y="138.6953"/><rect fill="#FFFFFF" height="14" style="stroke:#181818;stroke-width:1.0;" width="10" x="405" y="375.625"/><rect fill="#FFFFFF" height="14" style="stroke:#181818;stroke-width:1.0;" width="10" x="405" y="774.2188"/><rect fill="none" height="136.5313" style="stroke:#000000;stroke-width:1.5;" width="428" x="30" y="53.2969"/><rect fill="none" height="649.5234" style="stroke:#000000;stroke-width:1.5;" width="468" x="10" y="203.8281"/><rect fill="none" height="103.3984" style="stroke:#000000;stroke-width:1.5;" width="428" x="30" y="337.3594"/><rect fill="none" height="391.5938" style="stroke:#000000;stroke-width:1.5;" width="448" x="20" y="454.7578"/><rect fill="none" height="75.3984" style="stroke:#000000;stroke-width:1.5;" width="329" x="30" y="646.5547"/><rect fill="none" height="103.3984" style="stroke:#000000;stroke-width:1.5;" width="428" x="30" y="735.9531"/><rect fill="none" height="169.6641" style="stroke:#000000;stroke-width:1.5;" width="372" x="30" y="867.3516"/><line style="stroke:#181818;stroke-width:0.5;stroke-dasharray:5.0,5.0;" x1="75" x2="75" y1="36.2969" y2="1054.0156"/><line style="stroke:#181818;stroke-width:0.5;stroke-dasharray:5.0,5.0;" x1="211.5" x2="211.5" y1="36.2969" y2="1054.0156"/><line style="stroke:#181818;stroke-width:0.5;stroke-dasharray:5.0,5.0;" x1="319" x2="319" y1="36.2969" y2="1054.0156"/><line style="stroke:#181818;stroke-width:0.5;stroke-dasharray:5.0,5.0;" x1="410" x2="410" y1="36.2969" y2="1054.0156"/><rect fill="#E2E2F0" height="30.2969" rx="2.5" ry="2.5" style="stroke:#181818;stroke-width:0.5;" width="70" x="40" y="5"/><text fill="#000000" font-family="sans-serif" font-size="14" lengthAdjust="spacing" textLength="56" x="47" y="24.9951">&#12502;&#12521;&#12454;&#12470;</text><rect fill="#E2E2F0" height="30.2969" rx="2.5" ry="2.5" style="stroke:#181818;stroke-width:0.5;" width="70" x="40" y="1053.0156"/><text fill="#000000" font-family="sans-serif" font-size="14" lengthAdjust="spacing" textLength="56" x="47" y="1073.0107">&#12502;&#12521;&#12454;&#12470;</text><rect fill="#E2E2F0" height="30.2969" rx="2.5" ry="2.5" style="stroke:#181818;stroke-width:0.5;" width="53" x="185.5" y="5"/><text fill="#000000" font-family="sans-serif" font-size="14" lengthAdjust="spacing" textLength="39" x="192.5" y="24.9951">nginx</text><rect fill="#E2E2F0" height="30.2969" rx="2.5" ry="2.5" style="stroke:#181818;stroke-width:0.5;" width="53" x="185.5" y="1053.0156"/><text fill="#000000" font-family="sans-serif" font-size="14" lengthAdjust="spacing" textLength="39" x="192.5" y="1073.0107">nginx</text><rect fill="#E2E2F0" height="30.2969" rx="2.5" ry="2.5" style="stroke:#181818;stroke-width:0.5;" width="60" x="289" y="5"/><text fill="#000000" font-family="sans-serif" font-size="14" lengthAdjust="spacing" textLength="46" x="296" y="24.9951">svisitd</text><rect fill="#E2E2F0" height="30.2969" rx="2.5" ry="2.5" style="stroke:#181818;stroke-width:0.5;" width="60" x="289" y="1053.0156"/><text fill="#000000" font-family="sans-serif" font-size="14" lengthAdjust="spacing" textLength="46" x="296" y="1073.0107">svisitd</text><rect fill="#E2E2F0" height="30.2969" rx="2.5" ry="2.5" style="stroke:#181818;stroke-width:0.5;" width="76" x="372" y="5"/><text fill="#000000" font-family="sans-serif" font-size="14" lengthAdjust="spacing" textLength="62" x="379" y="24.9951">backend</text><rect fill="#E2E2F0" height="30.2969" rx="2.5" ry="2.5" style="stroke:#181818;stroke-width:0.5;" width="76" x="372" y="1053.0156"/><text fill="#000000" font-family="sans-serif" font-size="14" lengthAdjust="spacing" textLength="62" x="379" y="1073.0107">backend</text><rect fill="#FFFFFF" height="512.9922" style="stroke:#181818;stroke-width:1.0;" width="10" x="314" y="289.2266"/><rect fill="#FFFFFF" height="14" style="stroke:#181818;stroke-width:1.0;" width="10" x="405" y="138.6953"/><rect fill="#FFFFFF" height="14" style="stroke:#181818;stroke-width:1.0;" width="10" x="405" y="375.625"/><rect fill="#FFFFFF" height="14" style="stroke:#181818;stroke-width:1.0;" width="10" x="405" y="774.2188"/><path d="M30,53.2969 L189,53.2969 L189,60.4297 L179,70.4297 L30,70.4297 L30,53.2969 " fill="#EEEEEE" style="stroke:#000000;stroke-width:1.5;"/><rect fill="none" height="136.5313" style="stroke:#000000;stroke-width:1.5;" width="428" x="30" y="53.2969"/><text fill="#000000" font-family="sans-serif" font-size="13" font-weight="bold" lengthAdjust="spacing" textLength="114" x="45" y="66.3638">"&#35469;&#35388;&#19981;&#35201;&#12394;URL&#8221;</text><polygon fill="#181818" points="200,87.5625,210,91.5625,200,95.5625,204,91.5625" style="stroke:#181818;stroke-width:1.0;"/><line style="stroke:#181818;stroke-width:1.0;" x1="75" x2="206" y1="91.5625" y2="91.5625"/><text fill="#000000" font-family="sans-serif" font-size="13" lengthAdjust="spacing" textLength="49" x="82" y="86.4966">request</text><rect fill="#FEFFDD" height="23" style="stroke:#181818;stroke-width:0.5;" width="127" x="148" y="104.5625"/><text fill="#000000" font-family="sans-serif" font-size="13" lengthAdjust="spacing" textLength="119" x="152" y="120.6294">backend&#12408;&#25391;&#12426;&#20998;&#12369;</text><polygon fill="#181818" points="393,134.6953,403,138.6953,393,142.6953,397,138.6953" style="stroke:#181818;stroke-width:1.0;"/><line style="stroke:#181818;stroke-width:1.0;" x1="212" x2="399" y1="138.6953" y2="138.6953"/><polygon fill="#181818" points="223,148.6953,213,152.6953,223,156.6953,219,152.6953" style="stroke:#181818;stroke-width:1.0;"/><line style="stroke:#181818;stroke-width:1.0;" x1="217" x2="409" y1="152.6953" y2="152.6953"/><polygon fill="#181818" points="86,177.8281,76,181.8281,86,185.8281,82,181.8281" style="stroke:#181818;stroke-width:1.0;"/><line style="stroke:#181818;stroke-width:1.0;" x1="80" x2="211" y1="181.8281" y2="181.8281"/><text fill="#000000" font-family="sans-serif" font-size="13" lengthAdjust="spacing" textLength="59" x="92" y="176.7622">response</text><path d="M10,203.8281 L169,203.8281 L169,210.9609 L159,220.9609 L10,220.9609 L10,203.8281 " fill="#EEEEEE" style="stroke:#000000;stroke-width:1.5;"/><rect fill="none" height="649.5234" style="stroke:#000000;stroke-width:1.5;" width="468" x="10" y="203.8281"/><text fill="#000000" font-family="sans-serif" font-size="13" font-weight="bold" lengthAdjust="spacing" textLength="114" x="25" y="216.895">"&#35469;&#35388;&#24517;&#35201;&#12394;URL&#8221;</text><polygon fill="#181818" points="200,238.0938,210,242.0938,200,246.0938,204,242.0938" style="stroke:#181818;stroke-width:1.0;"/><line style="stroke:#181818;stroke-width:1.0;" x1="75" x2="206" y1="242.0938" y2="242.0938"/><text fill="#000000" font-family="sans-serif" font-size="13" lengthAdjust="spacing" textLength="49" x="82" y="237.0278">request</text><rect fill="#FEFFDD" height="23" style="stroke:#181818;stroke-width:0.5;" width="114" x="155" y="255.0938"/><text fill="#000000" font-family="sans-serif" font-size="13" lengthAdjust="spacing" textLength="106" x="159" y="271.1606">svisitd&#12408;&#25391;&#12426;&#20998;&#12369;</text><polygon fill="#181818" points="302,285.2266,312,289.2266,302,293.2266,306,289.2266" style="stroke:#181818;stroke-width:1.0;"/><line style="stroke:#181818;stroke-width:1.0;" x1="212" x2="308" y1="289.2266" y2="289.2266"/><rect fill="#FEFFDD" height="23" style="stroke:#181818;stroke-width:0.5;" width="151" x="243" y="302.2266"/><text fill="#000000" font-family="sans-serif" font-size="13" lengthAdjust="spacing" textLength="143" x="247" y="318.2935">&#12475;&#12483;&#12471;&#12519;&#12531;&#26377;&#21177;&#24615;&#12398;&#21028;&#26029;</text><path d="M30,337.3594 L147,337.3594 L147,344.4922 L137,354.4922 L30,354.4922 L30,337.3594 " fill="#EEEEEE" style="stroke:#000000;stroke-width:1.5;"/><rect fill="none" height="103.3984" style="stroke:#000000;stroke-width:1.5;" width="428" x="30" y="337.3594"/><text fill="#000000" font-family="sans-serif" font-size="13" font-weight="bold" lengthAdjust="spacing" textLength="72" x="45" y="350.4263">"&#35469;&#35388;&#28168;&#12415;&#8221;</text><polygon fill="#181818" points="393,371.625,403,375.625,393,379.625,397,375.625" style="stroke:#181818;stroke-width:1.0;"/><line style="stroke:#181818;stroke-width:1.0;" x1="324" x2="399" y1="375.625" y2="375.625"/><text fill="#000000" font-family="sans-serif" font-size="13" lengthAdjust="spacing" textLength="62" x="331" y="370.5591">&#20803;request</text><polygon fill="#181818" points="335,385.625,325,389.625,335,393.625,331,389.625" style="stroke:#181818;stroke-width:1.0;"/><line style="stroke:#181818;stroke-width:1.0;" x1="329" x2="409" y1="389.625" y2="389.625"/><polygon fill="#181818" points="223,399.625,213,403.625,223,407.625,219,403.625" style="stroke:#181818;stroke-width:1.0;"/><line style="stroke:#181818;stroke-width:1.0;" x1="217" x2="313" y1="403.625" y2="403.625"/><polygon fill="#181818" points="86,428.7578,76,432.7578,86,436.7578,82,432.7578" style="stroke:#181818;stroke-width:1.0;"/><line style="stroke:#181818;stroke-width:1.0;" x1="80" x2="211" y1="432.7578" y2="432.7578"/><text fill="#000000" font-family="sans-serif" font-size="13" lengthAdjust="spacing" textLength="59" x="92" y="427.6919">response</text><path d="M20,454.7578 L123,454.7578 L123,461.8906 L113,471.8906 L20,471.8906 L20,454.7578 " fill="#EEEEEE" style="stroke:#000000;stroke-width:1.5;"/><rect fill="none" height="391.5938" style="stroke:#000000;stroke-width:1.5;" width="448" x="20" y="454.7578"/><text fill="#000000" font-family="sans-serif" font-size="13" font-weight="bold" lengthAdjust="spacing" textLength="58" x="35" y="467.8247">"&#26410;&#35469;&#35388;&#8221;</text><polygon fill="#181818" points="223,489.0234,213,493.0234,223,497.0234,219,493.0234" style="stroke:#181818;stroke-width:1.0;"/><line style="stroke:#181818;stroke-width:1.0;" x1="217" x2="313" y1="493.0234" y2="493.0234"/><text fill="#000000" font-family="sans-serif" font-size="13" lengthAdjust="spacing" textLength="65" x="229" y="487.9575">&#35469;&#35388;&#30011;&#38754;&#31561;</text><polygon fill="#181818" points="86,518.1563,76,522.1563,86,526.1563,82,522.1563" style="stroke:#181818;stroke-width:1.0;"/><line style="stroke:#181818;stroke-width:1.0;" x1="80" x2="211" y1="522.1563" y2="522.1563"/><text fill="#000000" font-family="sans-serif" font-size="13" lengthAdjust="spacing" textLength="65" x="92" y="517.0903">&#35469;&#35388;&#30011;&#38754;&#31561;</text><polygon fill="#181818" points="200,547.2891,210,551.2891,200,555.2891,204,551.2891" style="stroke:#181818;stroke-width:1.0;"/><line style="stroke:#181818;stroke-width:1.0;" x1="75" x2="206" y1="551.2891" y2="551.2891"/><text fill="#000000" font-family="sans-serif" font-size="13" lengthAdjust="spacing" textLength="98" x="82" y="546.2231">UserID,Token&#31561;</text><rect fill="#FEFFDD" height="23" style="stroke:#181818;stroke-width:0.5;" width="114" x="155" y="564.2891"/><text fill="#000000" font-family="sans-serif" font-size="13" lengthAdjust="spacing" textLength="106" x="159" y="580.356">svisitd&#12408;&#25391;&#12426;&#20998;&#12369;</text><polygon fill="#181818" points="302,594.4219,312,598.4219,302,602.4219,306,598.4219" style="stroke:#181818;stroke-width:1.0;"/><line style="stroke:#181818;stroke-width:1.0;" x1="212" x2="308" y1="598.4219" y2="598.4219"/><rect fill="#FEFFDD" height="23" style="stroke:#181818;stroke-width:0.5;" width="60" x="289" y="611.4219"/><text fill="#000000" font-family="sans-serif" font-size="13" lengthAdjust="spacing" textLength="52" x="293" y="627.4888">&#35469;&#35388;&#20966;&#29702;</text><path d="M30,646.5547 L145,646.5547 L145,653.6875 L135,663.6875 L30,663.6875 L30,646.5547 " fill="#EEEEEE" style="stroke:#000000;stroke-width:1.5;"/><rect fill="none" height="75.3984" style="stroke:#000000;stroke-width:1.5;" width="329" x="30" y="646.5547"/><text fill="#000000" font-family="sans-serif" font-size="13" font-weight="bold" lengthAdjust="spacing" textLength="70" x="45" y="659.6216">"&#35469;&#35388;&#22833;&#25943;"</text><polygon fill="#181818" points="223,680.8203,213,684.8203,223,688.8203,219,684.8203" style="stroke:#181818;stroke-width:1.0;"/><line style="stroke:#181818;stroke-width:1.0;" x1="217" x2="313" y1="684.8203" y2="684.8203"/><text fill="#000000" font-family="sans-serif" font-size="13" lengthAdjust="spacing" textLength="78" x="229" y="679.7544">&#12456;&#12521;&#12540;&#30011;&#38754;&#31561;</text><polygon fill="#181818" points="86,709.9531,76,713.9531,86,717.9531,82,713.9531" style="stroke:#181818;stroke-width:1.0;"/><line style="stroke:#181818;stroke-width:1.0;" x1="80" x2="211" y1="713.9531" y2="713.9531"/><text fill="#000000" font-family="sans-serif" font-size="13" lengthAdjust="spacing" textLength="78" x="92" y="708.8872">&#12456;&#12521;&#12540;&#30011;&#38754;&#31561;</text><path d="M30,735.9531 L145,735.9531 L145,743.0859 L135,753.0859 L30,753.0859 L30,735.9531 " fill="#EEEEEE" style="stroke:#000000;stroke-width:1.5;"/><rect fill="none" height="103.3984" style="stroke:#000000;stroke-width:1.5;" width="428" x="30" y="735.9531"/><text fill="#000000" font-family="sans-serif" font-size="13" font-weight="bold" lengthAdjust="spacing" textLength="70" x="45" y="749.02">"&#35469;&#35388;&#25104;&#21151;"</text><polygon fill="#181818" points="393,770.2188,403,774.2188,393,778.2188,397,774.2188" style="stroke:#181818;stroke-width:1.0;"/><line style="stroke:#181818;stroke-width:1.0;" x1="324" x2="399" y1="774.2188" y2="774.2188"/><text fill="#000000" font-family="sans-serif" font-size="13" lengthAdjust="spacing" textLength="62" x="331" y="769.1528">&#20803;request</text><polygon fill="#181818" points="335,784.2188,325,788.2188,335,792.2188,331,788.2188" style="stroke:#181818;stroke-width:1.0;"/><line style="stroke:#181818;stroke-width:1.0;" x1="329" x2="409" y1="788.2188" y2="788.2188"/><polygon fill="#181818" points="223,798.2188,213,802.2188,223,806.2188,219,802.2188" style="stroke:#181818;stroke-width:1.0;"/><line style="stroke:#181818;stroke-width:1.0;" x1="217" x2="318" y1="802.2188" y2="802.2188"/><polygon fill="#181818" points="86,827.3516,76,831.3516,86,835.3516,82,831.3516" style="stroke:#181818;stroke-width:1.0;"/><line style="stroke:#181818;stroke-width:1.0;" x1="80" x2="211" y1="831.3516" y2="831.3516"/><text fill="#000000" font-family="sans-serif" font-size="13" lengthAdjust="spacing" textLength="59" x="92" y="826.2856">response</text><path d="M30,867.3516 L163,867.3516 L163,874.4844 L153,884.4844 L30,884.4844 L30,867.3516 " fill="#EEEEEE" style="stroke:#000000;stroke-width:1.5;"/><rect fill="none" height="169.6641" style="stroke:#000000;stroke-width:1.5;" width="372" x="30" y="867.3516"/><text fill="#000000" font-family="sans-serif" font-size="13" font-weight="bold" lengthAdjust="spacing" textLength="88" x="45" y="880.4185">"/system/*&#8221;</text><polygon fill="#181818" points="200,901.6172,210,905.6172,200,909.6172,204,905.6172" style="stroke:#181818;stroke-width:1.0;"/><line style="stroke:#181818;stroke-width:1.0;" x1="75" x2="206" y1="905.6172" y2="905.6172"/><text fill="#000000" font-family="sans-serif" font-size="13" lengthAdjust="spacing" textLength="49" x="82" y="900.5513">request</text><rect fill="#FEFFDD" height="23" style="stroke:#181818;stroke-width:0.5;" width="114" x="155" y="918.6172"/><text fill="#000000" font-family="sans-serif" font-size="13" lengthAdjust="spacing" textLength="106" x="159" y="934.6841">svisitd&#12408;&#25391;&#12426;&#20998;&#12369;</text><polygon fill="#181818" points="307,948.75,317,952.75,307,956.75,311,952.75" style="stroke:#181818;stroke-width:1.0;"/><line style="stroke:#181818;stroke-width:1.0;" x1="212" x2="313" y1="952.75" y2="952.75"/><rect fill="#FEFFDD" height="23" style="stroke:#181818;stroke-width:0.5;" width="147" x="245" y="965.75"/><text fill="#000000" font-family="sans-serif" font-size="13" lengthAdjust="spacing" textLength="139" x="249" y="981.8169">system&#12467;&#12531;&#12486;&#12531;&#12484;&#20986;&#21147;</text><polygon fill="#181818" points="223,995.8828,213,999.8828,223,1003.8828,219,999.8828" style="stroke:#181818;stroke-width:1.0;"/><line style="stroke:#181818;stroke-width:1.0;" x1="217" x2="318" y1="999.8828" y2="999.8828"/><polygon fill="#181818" points="86,1025.0156,76,1029.0156,86,1033.0156,82,1029.0156" style="stroke:#181818;stroke-width:1.0;"/><line style="stroke:#181818;stroke-width:1.0;" x1="80" x2="211" y1="1029.0156" y2="1029.0156"/><text fill="#000000" font-family="sans-serif" font-size="13" lengthAdjust="spacing" textLength="113" x="92" y="1023.9497">system&#12467;&#12531;&#12486;&#12531;&#12484;</text><!--SRC=[lLJBIiD05DtdAmQNelXSTU7AZU1Az0FITf0W9Z4Jg-wQZAsrA2ZuMAW8KgeML4JG-e3-YzUazI-S9fCsOoOY26w6v9wRUy-vzsHCrRArd6QgketUYsT0Zu1UWri7zv6z8fMWh6Mi4MmXmygpSsnKCMEVw8kQliwXSH4Y1OreTfw34oAOLNDBM8_0oL5bqJ9MJJJGQUnshju-chkTkWDEOs5kbh5GK8_4y5JOCeCilBAAYSqmIpTiZ8m2WmECXL3K09ocltC7RjMhbC7PPn0B1X-mnv0yAycJCuW5rPoj5LHMa0ULNgrUSnRAOqbUlrx8DcDXOXewmKeN5nHwhT9V5VBv_auXJnOLHXiIE_1eq0FSLw0Kt2UWbq0V_DDjh_hi5o_1kVKgDV_eHcmdIFIR5N1QeRWUs_YqlHBb4b6G8fceCFiuCUdyXIxzGQMl9I3Vv-sVDaBg4jBXJaAuVV3wUNRHljcMbvSb9RQxmDvcfeVc3SOzIfAk-OT52xDFBljxpNWO8Ux3hNfxhvoi9PgrTkyV7W-8TFfImBtgtXdqcsJ9P58oe-s9zgdiUTLpITEaVNYEr16f3ahrK8gBX7onq4y6YzHrpzWjC48sY8sNHmR_- -TFyKD81zm7zfS3BGVdfhVrubLFnAAIsIJaIujrrNy1]--></g></svg>
