<?xml version="1.0" encoding="us-ascii" standalone="no"?><svg xmlns="http://www.w3.org/2000/svg" xmlns:xlink="http://www.w3.org/1999/xlink" contentStyleType="text/css" height="1106px" preserveAspectRatio="none" style="width:576px;height:1106px;background:#FFFFFF;" version="1.1" viewBox="0 0 576 1106" width="576px" zoomAndPan="magnify"><defs/><g><rect fill="#FFFFFF" height="530.125" style="stroke:#181818;stroke-width:1.0;" width="10" x="314" y="289.2266"/><rect fill="#FFFFFF" height="14" style="stroke:#181818;stroke-width:1.0;" width="10" x="449.5" y="138.6953"/><rect fill="#FFFFFF" height="14" style="stroke:#181818;stroke-width:1.0;" width="10" x="449.5" y="375.625"/><rect fill="#FFFFFF" height="14" style="stroke:#181818;stroke-width:1.0;" width="10" x="449.5" y="791.3516"/><rect fill="none" height="136.5313" style="stroke:#000000;stroke-width:1.5;" width="472.5" x="30" y="53.2969"/><rect fill="none" height="666.6563" style="stroke:#000000;stroke-width:1.5;" width="560" x="10" y="203.8281"/><rect fill="none" height="103.3984" style="stroke:#000000;stroke-width:1.5;" width="472.5" x="30" y="337.3594"/><rect fill="none" height="408.7266" style="stroke:#000000;stroke-width:1.5;" width="540" x="20" y="454.7578"/><rect fill="none" height="75.3984" style="stroke:#000000;stroke-width:1.5;" width="329" x="30" y="663.6875"/><rect fill="none" height="103.3984" style="stroke:#000000;stroke-width:1.5;" width="472.5" x="30" y="753.0859"/><rect fill="none" height="169.6641" style="stroke:#000000;stroke-width:1.5;" width="372" x="30" y="884.4844"/><line style="stroke:#181818;stroke-width:0.5;stroke-dasharray:5.0,5.0;" x1="75" x2="75" y1="36.2969" y2="1071.1484"/><line style="stroke:#181818;stroke-width:0.5;stroke-dasharray:5.0,5.0;" x1="211.5" x2="211.5" y1="36.2969" y2="1071.1484"/><line style="stroke:#181818;stroke-width:0.5;stroke-dasharray:5.0,5.0;" x1="319" x2="319" y1="36.2969" y2="1071.1484"/><line style="stroke:#181818;stroke-width:0.5;stroke-dasharray:5.0,5.0;" x1="454.5" x2="454.5" y1="36.2969" y2="1071.1484"/><rect fill="#E2E2F0" height="30.2969" rx="2.5" ry="2.5" style="stroke:#181818;stroke-width:0.5;" width="70" x="40" y="5"/><text fill="#000000" font-family="sans-serif" font-size="14" lengthAdjust="spacing" textLength="56" x="47" y="24.9951">&#12502;&#12521;&#12454;&#12470;</text><rect fill="#E2E2F0" height="30.2969" rx="2.5" ry="2.5" style="stroke:#181818;stroke-width:0.5;" width="70" x="40" y="1070.1484"/><text fill="#000000" font-family="sans-serif" font-size="14" lengthAdjust="spacing" textLength="56" x="47" y="1090.1436">&#12502;&#12521;&#12454;&#12470;</text><rect fill="#E2E2F0" height="30.2969" rx="2.5" ry="2.5" style="stroke:#181818;stroke-width:0.5;" width="53" x="185.5" y="5"/><text fill="#000000" font-family="sans-serif" font-size="14" lengthAdjust="spacing" textLength="39" x="192.5" y="24.9951">nginx</text><rect fill="#E2E2F0" height="30.2969" rx="2.5" ry="2.5" style="stroke:#181818;stroke-width:0.5;" width="53" x="185.5" y="1070.1484"/><text fill="#000000" font-family="sans-serif" font-size="14" lengthAdjust="spacing" textLength="39" x="192.5" y="1090.1436">nginx</text><rect fill="#E2E2F0" height="30.2969" rx="2.5" ry="2.5" style="stroke:#181818;stroke-width:0.5;" width="60" x="289" y="5"/><text fill="#000000" font-family="sans-serif" font-size="14" lengthAdjust="spacing" textLength="46" x="296" y="24.9951">svisitd</text><rect fill="#E2E2F0" height="30.2969" rx="2.5" ry="2.5" style="stroke:#181818;stroke-width:0.5;" width="60" x="289" y="1070.1484"/><text fill="#000000" font-family="sans-serif" font-size="14" lengthAdjust="spacing" textLength="46" x="296" y="1090.1436">svisitd</text><rect fill="#E2E2F0" height="30.2969" rx="2.5" ry="2.5" style="stroke:#181818;stroke-width:0.5;" width="76" x="416.5" y="5"/><text fill="#000000" font-family="sans-serif" font-size="14" lengthAdjust="spacing" textLength="62" x="423.5" y="24.9951">backend</text><rect fill="#E2E2F0" height="30.2969" rx="2.5" ry="2.5" style="stroke:#181818;stroke-width:0.5;" width="76" x="416.5" y="1070.1484"/><text fill="#000000" font-family="sans-serif" font-size="14" lengthAdjust="spacing" textLength="62" x="423.5" y="1090.1436">backend</text><rect fill="#FFFFFF" height="530.125" style="stroke:#181818;stroke-width:1.0;" width="10" x="314" y="289.2266"/><rect fill="#FFFFFF" height="14" style="stroke:#181818;stroke-width:1.0;" width="10" x="449.5" y="138.6953"/><rect fill="#FFFFFF" height="14" style="stroke:#181818;stroke-width:1.0;" width="10" x="449.5" y="375.625"/><rect fill="#FFFFFF" height="14" style="stroke:#181818;stroke-width:1.0;" width="10" x="449.5" y="791.3516"/><path d="M30,53.2969 L189,53.2969 L189,60.4297 L179,70.4297 L30,70.4297 L30,53.2969 " fill="#EEEEEE" style="stroke:#000000;stroke-width:1.5;"/><rect fill="none" height="136.5313" style="stroke:#000000;stroke-width:1.5;" width="472.5" x="30" y="53.2969"/><text fill="#000000" font-family="sans-serif" font-size="13" font-weight="bold" lengthAdjust="spacing" textLength="114" x="45" y="66.3638">"&#35469;&#35388;&#19981;&#35201;&#12394;URL&#8221;</text><polygon fill="#181818" points="200,87.5625,210,91.5625,200,95.5625,204,91.5625" style="stroke:#181818;stroke-width:1.0;"/><line style="stroke:#181818;stroke-width:1.0;" x1="75" x2="206" y1="91.5625" y2="91.5625"/><text fill="#000000" font-family="sans-serif" font-size="13" lengthAdjust="spacing" textLength="49" x="82" y="86.4966">request</text><rect fill="#FEFFDD" height="23" style="stroke:#181818;stroke-width:0.5;" width="127" x="148" y="104.5625"/><text fill="#000000" font-family="sans-serif" font-size="13" lengthAdjust="spacing" textLength="119" x="152" y="120.6294">backend&#12408;&#25391;&#12426;&#20998;&#12369;</text><polygon fill="#181818" points="437.5,134.6953,447.5,138.6953,437.5,142.6953,441.5,138.6953" style="stroke:#181818;stroke-width:1.0;"/><line style="stroke:#181818;stroke-width:1.0;" x1="212" x2="443.5" y1="138.6953" y2="138.6953"/><polygon fill="#181818" points="223,148.6953,213,152.6953,223,156.6953,219,152.6953" style="stroke:#181818;stroke-width:1.0;"/><line style="stroke:#181818;stroke-width:1.0;" x1="217" x2="453.5" y1="152.6953" y2="152.6953"/><polygon fill="#181818" points="86,177.8281,76,181.8281,86,185.8281,82,181.8281" style="stroke:#181818;stroke-width:1.0;"/><line style="stroke:#181818;stroke-width:1.0;" x1="80" x2="211" y1="181.8281" y2="181.8281"/><text fill="#000000" font-family="sans-serif" font-size="13" lengthAdjust="spacing" textLength="59" x="92" y="176.7622">response</text><path d="M10,203.8281 L169,203.8281 L169,210.9609 L159,220.9609 L10,220.9609 L10,203.8281 " fill="#EEEEEE" style="stroke:#000000;stroke-width:1.5;"/><rect fill="none" height="666.6563" style="stroke:#000000;stroke-width:1.5;" width="560" x="10" y="203.8281"/><text fill="#000000" font-family="sans-serif" font-size="13" font-weight="bold" lengthAdjust="spacing" textLength="114" x="25" y="216.895">"&#35469;&#35388;&#24517;&#35201;&#12394;URL&#8221;</text><polygon fill="#181818" points="200,238.0938,210,242.0938,200,246.0938,204,242.0938" style="stroke:#181818;stroke-width:1.0;"/><line style="stroke:#181818;stroke-width:1.0;" x1="75" x2="206" y1="242.0938" y2="242.0938"/><text fill="#000000" font-family="sans-serif" font-size="13" lengthAdjust="spacing" textLength="49" x="82" y="237.0278">request</text><rect fill="#FEFFDD" height="23" style="stroke:#181818;stroke-width:0.5;" width="114" x="155" y="255.0938"/><text fill="#000000" font-family="sans-serif" font-size="13" lengthAdjust="spacing" textLength="106" x="159" y="271.1606">svisitd&#12408;&#25391;&#12426;&#20998;&#12369;</text><polygon fill="#181818" points="302,285.2266,312,289.2266,302,293.2266,306,289.2266" style="stroke:#181818;stroke-width:1.0;"/><line style="stroke:#181818;stroke-width:1.0;" x1="212" x2="308" y1="289.2266" y2="289.2266"/><rect fill="#FEFFDD" height="23" style="stroke:#181818;stroke-width:0.5;" width="151" x="243" y="302.2266"/><text fill="#000000" font-family="sans-serif" font-size="13" lengthAdjust="spacing" textLength="143" x="247" y="318.2935">&#12475;&#12483;&#12471;&#12519;&#12531;&#26377;&#21177;&#24615;&#12398;&#21028;&#26029;</text><path d="M30,337.3594 L147,337.3594 L147,344.4922 L137,354.4922 L30,354.4922 L30,337.3594 " fill="#EEEEEE" style="stroke:#000000;stroke-width:1.5;"/><rect fill="none" height="103.3984" style="stroke:#000000;stroke-width:1.5;" width="472.5" x="30" y="337.3594"/><text fill="#000000" font-family="sans-serif" font-size="13" font-weight="bold" lengthAdjust="spacing" textLength="72" x="45" y="350.4263">"&#35469;&#35388;&#28168;&#12415;&#8221;</text><polygon fill="#181818" points="437.5,371.625,447.5,375.625,437.5,379.625,441.5,375.625" style="stroke:#181818;stroke-width:1.0;"/><line style="stroke:#181818;stroke-width:1.0;" x1="324" x2="443.5" y1="375.625" y2="375.625"/><text fill="#000000" font-family="sans-serif" font-size="13" lengthAdjust="spacing" textLength="62" x="331" y="370.5591">&#20803;request</text><polygon fill="#181818" points="335,385.625,325,389.625,335,393.625,331,389.625" style="stroke:#181818;stroke-width:1.0;"/><line style="stroke:#181818;stroke-width:1.0;" x1="329" x2="453.5" y1="389.625" y2="389.625"/><polygon fill="#181818" points="223,399.625,213,403.625,223,407.625,219,403.625" style="stroke:#181818;stroke-width:1.0;"/><line style="stroke:#181818;stroke-width:1.0;" x1="217" x2="313" y1="403.625" y2="403.625"/><polygon fill="#181818" points="86,428.7578,76,432.7578,86,436.7578,82,432.7578" style="stroke:#181818;stroke-width:1.0;"/><line style="stroke:#181818;stroke-width:1.0;" x1="80" x2="211" y1="432.7578" y2="432.7578"/><text fill="#000000" font-family="sans-serif" font-size="13" lengthAdjust="spacing" textLength="59" x="92" y="427.6919">response</text><path d="M20,454.7578 L123,454.7578 L123,461.8906 L113,471.8906 L20,471.8906 L20,454.7578 " fill="#EEEEEE" style="stroke:#000000;stroke-width:1.5;"/><rect fill="none" height="408.7266" style="stroke:#000000;stroke-width:1.5;" width="540" x="20" y="454.7578"/><text fill="#000000" font-family="sans-serif" font-size="13" font-weight="bold" lengthAdjust="spacing" textLength="58" x="35" y="467.8247">"&#26410;&#35469;&#35388;&#8221;</text><polygon fill="#181818" points="223,489.0234,213,493.0234,223,497.0234,219,493.0234" style="stroke:#181818;stroke-width:1.0;"/><line style="stroke:#181818;stroke-width:1.0;" x1="217" x2="313" y1="493.0234" y2="493.0234"/><text fill="#000000" font-family="sans-serif" font-size="13" lengthAdjust="spacing" textLength="65" x="229" y="487.9575">&#35469;&#35388;&#30011;&#38754;&#31561;</text><polygon fill="#181818" points="86,518.1563,76,522.1563,86,526.1563,82,522.1563" style="stroke:#181818;stroke-width:1.0;"/><line style="stroke:#181818;stroke-width:1.0;" x1="80" x2="211" y1="522.1563" y2="522.1563"/><text fill="#000000" font-family="sans-serif" font-size="13" lengthAdjust="spacing" textLength="65" x="92" y="517.0903">&#35469;&#35388;&#30011;&#38754;&#31561;</text><polygon fill="#181818" points="200,547.2891,210,551.2891,200,555.2891,204,551.2891" style="stroke:#181818;stroke-width:1.0;"/><line style="stroke:#181818;stroke-width:1.0;" x1="75" x2="206" y1="551.2891" y2="551.2891"/><text fill="#000000" font-family="sans-serif" font-size="13" lengthAdjust="spacing" textLength="98" x="82" y="546.2231">UserID,Token&#31561;</text><rect fill="#FEFFDD" height="23" style="stroke:#181818;stroke-width:0.5;" width="114" x="155" y="564.2891"/><text fill="#000000" font-family="sans-serif" font-size="13" lengthAdjust="spacing" textLength="106" x="159" y="580.356">svisitd&#12408;&#25391;&#12426;&#20998;&#12369;</text><polygon fill="#181818" points="302,594.4219,312,598.4219,302,602.4219,306,598.4219" style="stroke:#181818;stroke-width:1.0;"/><line style="stroke:#181818;stroke-width:1.0;" x1="212" x2="308" y1="598.4219" y2="598.4219"/><rect fill="#FEFFDD" height="23" style="stroke:#181818;stroke-width:0.5;" width="60" x="289" y="611.4219"/><text fill="#000000" font-family="sans-serif" font-size="13" lengthAdjust="spacing" textLength="52" x="293" y="627.4888">&#35469;&#35388;&#20966;&#29702;</text><path d="M359,611.4219 L359,651.4219 L550,651.4219 L550,621.4219 L540,611.4219 L359,611.4219 " fill="#FFAAAA" style="stroke:#181818;stroke-width:0.5;"/><path d="M540,611.4219 L540,621.4219 L550,621.4219 L540,611.4219 " fill="#FFAAAA" style="stroke:#181818;stroke-width:0.5;"/><text fill="#000000" font-family="sans-serif" font-size="13" lengthAdjust="spacing" textLength="170" x="365" y="628.4888">request&#12364;/system/&#12398;&#22580;&#21512;&#12289;</text><text fill="#000000" font-family="sans-serif" font-size="13" lengthAdjust="spacing" textLength="143" x="365" y="643.6216">&#12371;&#12371;&#12391;&#19978;&#26360;&#12365;&#21839;&#38988;&#12364;&#30330;&#29983;</text><path d="M30,663.6875 L145,663.6875 L145,670.8203 L135,680.8203 L30,680.8203 L30,663.6875 " fill="#EEEEEE" style="stroke:#000000;stroke-width:1.5;"/><rect fill="none" height="75.3984" style="stroke:#000000;stroke-width:1.5;" width="329" x="30" y="663.6875"/><text fill="#000000" font-family="sans-serif" font-size="13" font-weight="bold" lengthAdjust="spacing" textLength="70" x="45" y="676.7544">"&#35469;&#35388;&#22833;&#25943;"</text><polygon fill="#181818" points="223,697.9531,213,701.9531,223,705.9531,219,701.9531" style="stroke:#181818;stroke-width:1.0;"/><line style="stroke:#181818;stroke-width:1.0;" x1="217" x2="313" y1="701.9531" y2="701.9531"/><text fill="#000000" font-family="sans-serif" font-size="13" lengthAdjust="spacing" textLength="78" x="229" y="696.8872">&#12456;&#12521;&#12540;&#30011;&#38754;&#31561;</text><polygon fill="#181818" points="86,727.0859,76,731.0859,86,735.0859,82,731.0859" style="stroke:#181818;stroke-width:1.0;"/><line style="stroke:#181818;stroke-width:1.0;" x1="80" x2="211" y1="731.0859" y2="731.0859"/><text fill="#000000" font-family="sans-serif" font-size="13" lengthAdjust="spacing" textLength="78" x="92" y="726.02">&#12456;&#12521;&#12540;&#30011;&#38754;&#31561;</text><path d="M30,753.0859 L145,753.0859 L145,760.2188 L135,770.2188 L30,770.2188 L30,753.0859 " fill="#EEEEEE" style="stroke:#000000;stroke-width:1.5;"/><rect fill="none" height="103.3984" style="stroke:#000000;stroke-width:1.5;" width="472.5" x="30" y="753.0859"/><text fill="#000000" font-family="sans-serif" font-size="13" font-weight="bold" lengthAdjust="spacing" textLength="70" x="45" y="766.1528">"&#35469;&#35388;&#25104;&#21151;"</text><polygon fill="#181818" points="437.5,787.3516,447.5,791.3516,437.5,795.3516,441.5,791.3516" style="stroke:#181818;stroke-width:1.0;"/><line style="stroke:#181818;stroke-width:1.0;" x1="324" x2="443.5" y1="791.3516" y2="791.3516"/><text fill="#000000" font-family="sans-serif" font-size="13" lengthAdjust="spacing" textLength="62" x="331" y="786.2856">&#20803;request</text><polygon fill="#181818" points="335,801.3516,325,805.3516,335,809.3516,331,805.3516" style="stroke:#181818;stroke-width:1.0;"/><line style="stroke:#181818;stroke-width:1.0;" x1="329" x2="453.5" y1="805.3516" y2="805.3516"/><polygon fill="#181818" points="223,815.3516,213,819.3516,223,823.3516,219,819.3516" style="stroke:#181818;stroke-width:1.0;"/><line style="stroke:#181818;stroke-width:1.0;" x1="217" x2="318" y1="819.3516" y2="819.3516"/><polygon fill="#181818" points="86,844.4844,76,848.4844,86,852.4844,82,848.4844" style="stroke:#181818;stroke-width:1.0;"/><line style="stroke:#181818;stroke-width:1.0;" x1="80" x2="211" y1="848.4844" y2="848.4844"/><text fill="#000000" font-family="sans-serif" font-size="13" lengthAdjust="spacing" textLength="59" x="92" y="843.4185">response</text><path d="M30,884.4844 L163,884.4844 L163,891.6172 L153,901.6172 L30,901.6172 L30,884.4844 " fill="#EEEEEE" style="stroke:#000000;stroke-width:1.5;"/><rect fill="none" height="169.6641" style="stroke:#000000;stroke-width:1.5;" width="372" x="30" y="884.4844"/><text fill="#000000" font-family="sans-serif" font-size="13" font-weight="bold" lengthAdjust="spacing" textLength="88" x="45" y="897.5513">"/system/*&#8221;</text><polygon fill="#181818" points="200,918.75,210,922.75,200,926.75,204,922.75" style="stroke:#181818;stroke-width:1.0;"/><line style="stroke:#181818;stroke-width:1.0;" x1="75" x2="206" y1="922.75" y2="922.75"/><text fill="#000000" font-family="sans-serif" font-size="13" lengthAdjust="spacing" textLength="49" x="82" y="917.6841">request</text><rect fill="#FEFFDD" height="23" style="stroke:#181818;stroke-width:0.5;" width="114" x="155" y="935.75"/><text fill="#000000" font-family="sans-serif" font-size="13" lengthAdjust="spacing" textLength="106" x="159" y="951.8169">svisitd&#12408;&#25391;&#12426;&#20998;&#12369;</text><polygon fill="#181818" points="307,965.8828,317,969.8828,307,973.8828,311,969.8828" style="stroke:#181818;stroke-width:1.0;"/><line style="stroke:#181818;stroke-width:1.0;" x1="212" x2="313" y1="969.8828" y2="969.8828"/><rect fill="#FEFFDD" height="23" style="stroke:#181818;stroke-width:0.5;" width="147" x="245" y="982.8828"/><text fill="#000000" font-family="sans-serif" font-size="13" lengthAdjust="spacing" textLength="139" x="249" y="998.9497">system&#12467;&#12531;&#12486;&#12531;&#12484;&#20986;&#21147;</text><polygon fill="#181818" points="223,1013.0156,213,1017.0156,223,1021.0156,219,1017.0156" style="stroke:#181818;stroke-width:1.0;"/><line style="stroke:#181818;stroke-width:1.0;" x1="217" x2="318" y1="1017.0156" y2="1017.0156"/><polygon fill="#181818" points="86,1042.1484,76,1046.1484,86,1050.1484,82,1046.1484" style="stroke:#181818;stroke-width:1.0;"/><line style="stroke:#181818;stroke-width:1.0;" x1="80" x2="211" y1="1046.1484" y2="1046.1484"/><text fill="#000000" font-family="sans-serif" font-size="13" lengthAdjust="spacing" textLength="113" x="92" y="1041.0825">system&#12467;&#12531;&#12486;&#12531;&#12484;</text><!--SRC=[jLHTQzH057tFhnZgcoXRFvxo80XI47mI- -PBkXjA49EOfAk-xIHscuPTNB6jI5kgKdRhGXMfQ6o5_XTlasp_XPF9J7QdcOWWBaj8xZbpxhtdNiRM7Cze6hPcUkXNPnU2BGW-WZy4_nlvH9gBbXphgQixo79Qv7bjNh5dZfZBXlcCGTT5o6qRhk6r67X319UqvYFTvE3DUMNPiLPiD3SPzoS7Fy_Y_cI80OyNxzyZLIYeBEBghIAbYXpzoOhkUWHpJClJaTKcCCL82F44WEEqzndyA0cxW5yHY0Jf0V9Q54ya6Lb59AWrFQEj4K4ML4gjCZa9jNG9RwfNLAiwkcjRfgihEIvqc9ok_aE7AlEssbrP0cE8BV6HY9AS2lu9107uto4OGN2KxgmdqO-qCmByAGdtqwr3Sane8er3mAT5-QWKd_4pMGrO4uXI99u9xZ896fOwB6IP3hlUU3hlQTtfphWeNL9quMm1PnidvxiViiDrkRoCL9dV8lcwU-VA0ulKpab_FyZgA2yAyB6nXLeRPeCkvJJGbCJDlRImS9lyL3OEmBs6-zprzCUDVBhllYQ343hueGduDVsFpk8etOu1zvFDb-VlU-H0zlOuszYZ6SHLtl-IRhwPeu34KF0FyXibk62NnDKQ9f-yk7hX88ds94chgySuqcsgtRxQ_QlPG84l2lrfENbt-NFcZk2pkVpVhmR9FXMvmJyYTm04NVfyaQmT9z6s8ks-qg1K8U_lDm00]--></g></svg>