<?xml version="1.0" encoding="us-ascii" standalone="no"?><svg xmlns="http://www.w3.org/2000/svg" xmlns:xlink="http://www.w3.org/1999/xlink" contentStyleType="text/css" height="787px" preserveAspectRatio="none" style="width:431px;height:787px;background:#FFFFFF;" version="1.1" viewBox="0 0 431 787" width="431px" zoomAndPan="magnify"><defs/><g><rect fill="#FFFFFF" height="224.7969" style="stroke:#181818;stroke-width:1.0;" width="10" x="281" y="289.2266"/><rect fill="#FFFFFF" height="14" style="stroke:#181818;stroke-width:1.0;" width="10" x="372" y="138.6953"/><rect fill="#FFFFFF" height="14" style="stroke:#181818;stroke-width:1.0;" width="10" x="372" y="486.0234"/><rect fill="none" height="136.5313" style="stroke:#000000;stroke-width:1.5;" width="415" x="10" y="53.2969"/><rect fill="none" height="347.3281" style="stroke:#000000;stroke-width:1.5;" width="415" x="10" y="203.8281"/><rect fill="none" height="169.6641" style="stroke:#000000;stroke-width:1.5;" width="359" x="10" y="565.1563"/><line style="stroke:#181818;stroke-width:0.5;stroke-dasharray:5.0,5.0;" x1="55" x2="55" y1="36.2969" y2="751.8203"/><line style="stroke:#181818;stroke-width:0.5;stroke-dasharray:5.0,5.0;" x1="191.5" x2="191.5" y1="36.2969" y2="751.8203"/><line style="stroke:#181818;stroke-width:0.5;stroke-dasharray:5.0,5.0;" x1="286" x2="286" y1="36.2969" y2="751.8203"/><line style="stroke:#181818;stroke-width:0.5;stroke-dasharray:5.0,5.0;" x1="377" x2="377" y1="36.2969" y2="751.8203"/><rect fill="#E2E2F0" height="30.2969" rx="2.5" ry="2.5" style="stroke:#181818;stroke-width:0.5;" width="70" x="20" y="5"/><text fill="#000000" font-family="sans-serif" font-size="14" lengthAdjust="spacing" textLength="56" x="27" y="24.9951">&#12502;&#12521;&#12454;&#12470;</text><rect fill="#E2E2F0" height="30.2969" rx="2.5" ry="2.5" style="stroke:#181818;stroke-width:0.5;" width="70" x="20" y="750.8203"/><text fill="#000000" font-family="sans-serif" font-size="14" lengthAdjust="spacing" textLength="56" x="27" y="770.8154">&#12502;&#12521;&#12454;&#12470;</text><rect fill="#E2E2F0" height="30.2969" rx="2.5" ry="2.5" style="stroke:#181818;stroke-width:0.5;" width="53" x="165.5" y="5"/><text fill="#000000" font-family="sans-serif" font-size="14" lengthAdjust="spacing" textLength="39" x="172.5" y="24.9951">nginx</text><rect fill="#E2E2F0" height="30.2969" rx="2.5" ry="2.5" style="stroke:#181818;stroke-width:0.5;" width="53" x="165.5" y="750.8203"/><text fill="#000000" font-family="sans-serif" font-size="14" lengthAdjust="spacing" textLength="39" x="172.5" y="770.8154">nginx</text><rect fill="#E2E2F0" height="30.2969" rx="2.5" ry="2.5" style="stroke:#181818;stroke-width:0.5;" width="60" x="256" y="5"/><text fill="#000000" font-family="sans-serif" font-size="14" lengthAdjust="spacing" textLength="46" x="263" y="24.9951">svisitd</text><rect fill="#E2E2F0" height="30.2969" rx="2.5" ry="2.5" style="stroke:#181818;stroke-width:0.5;" width="60" x="256" y="750.8203"/><text fill="#000000" font-family="sans-serif" font-size="14" lengthAdjust="spacing" textLength="46" x="263" y="770.8154">svisitd</text><rect fill="#E2E2F0" height="30.2969" rx="2.5" ry="2.5" style="stroke:#181818;stroke-width:0.5;" width="76" x="339" y="5"/><text fill="#000000" font-family="sans-serif" font-size="14" lengthAdjust="spacing" textLength="62" x="346" y="24.9951">backend</text><rect fill="#E2E2F0" height="30.2969" rx="2.5" ry="2.5" style="stroke:#181818;stroke-width:0.5;" width="76" x="339" y="750.8203"/><text fill="#000000" font-family="sans-serif" font-size="14" lengthAdjust="spacing" textLength="62" x="346" y="770.8154">backend</text><rect fill="#FFFFFF" height="224.7969" style="stroke:#181818;stroke-width:1.0;" width="10" x="281" y="289.2266"/><rect fill="#FFFFFF" height="14" style="stroke:#181818;stroke-width:1.0;" width="10" x="372" y="138.6953"/><rect fill="#FFFFFF" height="14" style="stroke:#181818;stroke-width:1.0;" width="10" x="372" y="486.0234"/><path d="M10,53.2969 L169,53.2969 L169,60.4297 L159,70.4297 L10,70.4297 L10,53.2969 " fill="#EEEEEE" style="stroke:#000000;stroke-width:1.5;"/><rect fill="none" height="136.5313" style="stroke:#000000;stroke-width:1.5;" width="415" x="10" y="53.2969"/><text fill="#000000" font-family="sans-serif" font-size="13" font-weight="bold" lengthAdjust="spacing" textLength="114" x="25" y="66.3638">"&#35469;&#35388;&#19981;&#35201;&#12394;URL&#8221;</text><polygon fill="#181818" points="180,87.5625,190,91.5625,180,95.5625,184,91.5625" style="stroke:#181818;stroke-width:1.0;"/><line style="stroke:#181818;stroke-width:1.0;" x1="55" x2="186" y1="91.5625" y2="91.5625"/><text fill="#000000" font-family="sans-serif" font-size="13" lengthAdjust="spacing" textLength="49" x="62" y="86.4966">request</text><rect fill="#FEFFDD" height="23" style="stroke:#181818;stroke-width:0.5;" width="127" x="128" y="104.5625"/><text fill="#000000" font-family="sans-serif" font-size="13" lengthAdjust="spacing" textLength="119" x="132" y="120.6294">backend&#12408;&#25391;&#12426;&#20998;&#12369;</text><polygon fill="#181818" points="360,134.6953,370,138.6953,360,142.6953,364,138.6953" style="stroke:#181818;stroke-width:1.0;"/><line style="stroke:#181818;stroke-width:1.0;" x1="192" x2="366" y1="138.6953" y2="138.6953"/><polygon fill="#181818" points="203,148.6953,193,152.6953,203,156.6953,199,152.6953" style="stroke:#181818;stroke-width:1.0;"/><line style="stroke:#181818;stroke-width:1.0;" x1="197" x2="376" y1="152.6953" y2="152.6953"/><polygon fill="#181818" points="66,177.8281,56,181.8281,66,185.8281,62,181.8281" style="stroke:#181818;stroke-width:1.0;"/><line style="stroke:#181818;stroke-width:1.0;" x1="60" x2="191" y1="181.8281" y2="181.8281"/><text fill="#000000" font-family="sans-serif" font-size="13" lengthAdjust="spacing" textLength="59" x="72" y="176.7622">response</text><path d="M10,203.8281 L169,203.8281 L169,210.9609 L159,220.9609 L10,220.9609 L10,203.8281 " fill="#EEEEEE" style="stroke:#000000;stroke-width:1.5;"/><rect fill="none" height="347.3281" style="stroke:#000000;stroke-width:1.5;" width="415" x="10" y="203.8281"/><text fill="#000000" font-family="sans-serif" font-size="13" font-weight="bold" lengthAdjust="spacing" textLength="114" x="25" y="216.895">"&#35469;&#35388;&#24517;&#35201;&#12394;URL&#8221;</text><polygon fill="#181818" points="180,238.0938,190,242.0938,180,246.0938,184,242.0938" style="stroke:#181818;stroke-width:1.0;"/><line style="stroke:#181818;stroke-width:1.0;" x1="55" x2="186" y1="242.0938" y2="242.0938"/><text fill="#000000" font-family="sans-serif" font-size="13" lengthAdjust="spacing" textLength="49" x="62" y="237.0278">request</text><rect fill="#FEFFDD" height="23" style="stroke:#181818;stroke-width:0.5;" width="114" x="135" y="255.0938"/><text fill="#000000" font-family="sans-serif" font-size="13" lengthAdjust="spacing" textLength="106" x="139" y="271.1606">svisitd&#12408;&#25391;&#12426;&#20998;&#12369;</text><polygon fill="#181818" points="269,285.2266,279,289.2266,269,293.2266,273,289.2266" style="stroke:#181818;stroke-width:1.0;"/><line style="stroke:#181818;stroke-width:1.0;" x1="192" x2="275" y1="289.2266" y2="289.2266"/><polygon fill="#181818" points="203,314.3594,193,318.3594,203,322.3594,199,318.3594" style="stroke:#181818;stroke-width:1.0;"/><line style="stroke:#181818;stroke-width:1.0;" x1="197" x2="280" y1="318.3594" y2="318.3594"/><text fill="#000000" font-family="sans-serif" font-size="13" lengthAdjust="spacing" textLength="65" x="209" y="313.2935">&#35469;&#35388;&#30011;&#38754;&#31561;</text><polygon fill="#181818" points="66,343.4922,56,347.4922,66,351.4922,62,347.4922" style="stroke:#181818;stroke-width:1.0;"/><line style="stroke:#181818;stroke-width:1.0;" x1="60" x2="191" y1="347.4922" y2="347.4922"/><text fill="#000000" font-family="sans-serif" font-size="13" lengthAdjust="spacing" textLength="65" x="72" y="342.4263">&#35469;&#35388;&#30011;&#38754;&#31561;</text><polygon fill="#181818" points="180,372.625,190,376.625,180,380.625,184,376.625" style="stroke:#181818;stroke-width:1.0;"/><line style="stroke:#181818;stroke-width:1.0;" x1="55" x2="186" y1="376.625" y2="376.625"/><text fill="#000000" font-family="sans-serif" font-size="13" lengthAdjust="spacing" textLength="98" x="62" y="371.5591">UserID,Token&#31561;</text><rect fill="#FEFFDD" height="23" style="stroke:#181818;stroke-width:0.5;" width="114" x="135" y="389.625"/><text fill="#000000" font-family="sans-serif" font-size="13" lengthAdjust="spacing" textLength="106" x="139" y="405.6919">svisitd&#12408;&#25391;&#12426;&#20998;&#12369;</text><polygon fill="#181818" points="269,419.7578,279,423.7578,269,427.7578,273,423.7578" style="stroke:#181818;stroke-width:1.0;"/><line style="stroke:#181818;stroke-width:1.0;" x1="192" x2="275" y1="423.7578" y2="423.7578"/><rect fill="#FEFFDD" height="23" style="stroke:#181818;stroke-width:0.5;" width="60" x="256" y="436.7578"/><text fill="#000000" font-family="sans-serif" font-size="13" lengthAdjust="spacing" textLength="52" x="260" y="452.8247">&#35469;&#35388;&#20966;&#29702;</text><polygon fill="#181818" points="360,482.0234,370,486.0234,360,490.0234,364,486.0234" style="stroke:#181818;stroke-width:1.0;"/><line style="stroke:#181818;stroke-width:1.0;" x1="291" x2="366" y1="486.0234" y2="486.0234"/><text fill="#000000" font-family="sans-serif" font-size="13" lengthAdjust="spacing" textLength="62" x="298" y="480.9575">&#20803;request</text><polygon fill="#181818" points="302,496.0234,292,500.0234,302,504.0234,298,500.0234" style="stroke:#181818;stroke-width:1.0;"/><line style="stroke:#181818;stroke-width:1.0;" x1="296" x2="376" y1="500.0234" y2="500.0234"/><polygon fill="#181818" points="203,510.0234,193,514.0234,203,518.0234,199,514.0234" style="stroke:#181818;stroke-width:1.0;"/><line style="stroke:#181818;stroke-width:1.0;" x1="197" x2="285" y1="514.0234" y2="514.0234"/><polygon fill="#181818" points="66,539.1563,56,543.1563,66,547.1563,62,543.1563" style="stroke:#181818;stroke-width:1.0;"/><line style="stroke:#181818;stroke-width:1.0;" x1="60" x2="191" y1="543.1563" y2="543.1563"/><text fill="#000000" font-family="sans-serif" font-size="13" lengthAdjust="spacing" textLength="59" x="72" y="538.0903">response</text><path d="M10,565.1563 L143,565.1563 L143,572.2891 L133,582.2891 L10,582.2891 L10,565.1563 " fill="#EEEEEE" style="stroke:#000000;stroke-width:1.5;"/><rect fill="none" height="169.6641" style="stroke:#000000;stroke-width:1.5;" width="359" x="10" y="565.1563"/><text fill="#000000" font-family="sans-serif" font-size="13" font-weight="bold" lengthAdjust="spacing" textLength="88" x="25" y="578.2231">"/system/*&#8221;</text><polygon fill="#181818" points="180,599.4219,190,603.4219,180,607.4219,184,603.4219" style="stroke:#181818;stroke-width:1.0;"/><line style="stroke:#181818;stroke-width:1.0;" x1="55" x2="186" y1="603.4219" y2="603.4219"/><text fill="#000000" font-family="sans-serif" font-size="13" lengthAdjust="spacing" textLength="49" x="62" y="598.356">request</text><rect fill="#FEFFDD" height="23" style="stroke:#181818;stroke-width:0.5;" width="114" x="135" y="616.4219"/><text fill="#000000" font-family="sans-serif" font-size="13" lengthAdjust="spacing" textLength="106" x="139" y="632.4888">svisitd&#12408;&#25391;&#12426;&#20998;&#12369;</text><polygon fill="#181818" points="274,646.5547,284,650.5547,274,654.5547,278,650.5547" style="stroke:#181818;stroke-width:1.0;"/><line style="stroke:#181818;stroke-width:1.0;" x1="192" x2="280" y1="650.5547" y2="650.5547"/><rect fill="#FEFFDD" height="23" style="stroke:#181818;stroke-width:0.5;" width="147" x="212" y="663.5547"/><text fill="#000000" font-family="sans-serif" font-size="13" lengthAdjust="spacing" textLength="139" x="216" y="679.6216">system&#12467;&#12531;&#12486;&#12531;&#12484;&#20986;&#21147;</text><polygon fill="#181818" points="203,693.6875,193,697.6875,203,701.6875,199,697.6875" style="stroke:#181818;stroke-width:1.0;"/><line style="stroke:#181818;stroke-width:1.0;" x1="197" x2="285" y1="697.6875" y2="697.6875"/><polygon fill="#181818" points="66,722.8203,56,726.8203,66,730.8203,62,726.8203" style="stroke:#181818;stroke-width:1.0;"/><line style="stroke:#181818;stroke-width:1.0;" x1="60" x2="191" y1="726.8203" y2="726.8203"/><text fill="#000000" font-family="sans-serif" font-size="13" lengthAdjust="spacing" textLength="113" x="72" y="721.7544">system&#12467;&#12531;&#12486;&#12531;&#12484;</text><!--SRC=[AqWiAibCpYn8p2jHUDGmzt7pjCVDAnytBNlSj0t8LKWiLaWgoYylJYrIo2zA0PA61bm5I5hoqZFpAg1IHgXInMMPnPabAL19OrJ9fCJaxDGycAI90LTwKNvfWOBIYrMzBrRiURAZzyMoniUDgqA3V82ku5A0EqBN3cAbbK9HQc5fQd49KAueBxyaLI6_32WDbWCAAS0iUDouurdF-iTDNKyxsXutJWHA0GN16e1CYEE1Ha8LMoa01HEJIpBB4e46GWMvu6R1BGSAfQHYKOSm3-9QgwBKueBylE9KBf0yYW-Vxc-br8VGy2NEXr35g3w4nH0Nt324xH1dFf-o- -NSHS_NTcBp7QOI33-40dcUBZeX-S0GWYYXcbTGpK88AYX0GxXzsVC9RQXc8FaI5kLFMviHuOm_xX5sO8rzz214LOVGJ5GgqI-kB2v9pTNNedVYm16c4ESyRjhyk1c8si1aozFsNK-xPkCCOfXhC3oCrJ2Gxm40]--></g></svg>