<?xml version="1.0" encoding="us-ascii" standalone="no"?><svg xmlns="http://www.w3.org/2000/svg" xmlns:xlink="http://www.w3.org/1999/xlink" contentStyleType="text/css" height="289px" preserveAspectRatio="none" style="width:881px;height:289px;" version="1.1" viewBox="0 0 881 289" width="881px" zoomAndPan="magnify"><defs/><g><!--cluster client--><g id="cluster_client"><path d="M8.5,70 L114.5,70 A3.75,3.75 0 0 1 117,72.5 L124,92.2969 L296.5,92.2969 A2.5,2.5 0 0 1 299,94.7969 L299,154.5 A2.5,2.5 0 0 1 296.5,157 L8.5,157 A2.5,2.5 0 0 1 6,154.5 L6,72.5 A2.5,2.5 0 0 1 8.5,70 " fill="none" style="stroke:#000000;stroke-width:1.5;"/><line style="stroke:#000000;stroke-width:1.5;" x1="6" x2="124" y1="92.2969" y2="92.2969"/><text fill="#000000" font-family="sans-serif" font-size="14" font-weight="bold" lengthAdjust="spacing" textLength="105" x="10" y="84.9951">&#12463;&#12521;&#12452;&#12450;&#12531;&#12488;&#20596;</text></g><!--cluster server--><g id="cluster_server"><path d="M325.5,6 L401.5,6 A3.75,3.75 0 0 1 404,8.5 L411,28.2969 L871.5,28.2969 A2.5,2.5 0 0 1 874,30.7969 L874,279.5 A2.5,2.5 0 0 1 871.5,282 L325.5,282 A2.5,2.5 0 0 1 323,279.5 L323,8.5 A2.5,2.5 0 0 1 325.5,6 " fill="none" style="stroke:#000000;stroke-width:1.5;"/><line style="stroke:#000000;stroke-width:1.5;" x1="323" x2="411" y1="28.2969" y2="28.2969"/><text fill="#000000" font-family="sans-serif" font-size="14" font-weight="bold" lengthAdjust="spacing" textLength="75" x="327" y="20.9951">&#12469;&#12540;&#12496;&#12540;&#20596;</text></g><!--cluster Backend--><g id="cluster_Backend"><polygon fill="none" points="638,75,648,65,850,65,850,232,840,242,638,242,638,75" style="stroke:#181818;stroke-width:1.0;"/><line style="stroke:#181818;stroke-width:1.0;" x1="840" x2="850" y1="75" y2="65"/><line style="stroke:#181818;stroke-width:1.0;" x1="638" x2="840" y1="75" y2="75"/><line style="stroke:#181818;stroke-width:1.0;" x1="840" x2="840" y1="75" y2="242"/><text fill="#000000" font-family="sans-serif" font-size="14" font-weight="bold" lengthAdjust="spacing" textLength="68" x="706" y="90.9951">Backend</text></g><!--cluster SecureVisit--><g id="cluster_SecureVisit"><polygon fill="none" points="355,67,365,57,606,57,606,240,596,250,355,250,355,67" style="stroke:#181818;stroke-width:1.0;"/><line style="stroke:#181818;stroke-width:1.0;" x1="596" x2="606" y1="67" y2="57"/><line style="stroke:#181818;stroke-width:1.0;" x1="355" x2="596" y1="67" y2="67"/><line style="stroke:#181818;stroke-width:1.0;" x1="596" x2="596" y1="67" y2="250"/><text fill="#000000" font-family="sans-serif" font-size="14" font-weight="bold" lengthAdjust="spacing" textLength="92" x="430.5" y="82.9951">SecureVisit</text></g><!--entity browser--><g id="elem_browser"><rect fill="#F1F1F1" height="36.2969" rx="2.5" ry="2.5" style="stroke:#181818;stroke-width:0.5;" width="76" x="207" y="105"/><text fill="#000000" font-family="sans-serif" font-size="14" lengthAdjust="spacing" textLength="56" x="217" y="127.9951">&#12502;&#12521;&#12454;&#12470;</text></g><!--entity token--><g id="elem_token"><rect fill="#F1F1F1" height="36.2969" rx="2.5" ry="2.5" style="stroke:#181818;stroke-width:0.5;" width="149" x="22.5" y="105"/><text fill="#000000" font-family="sans-serif" font-size="14" lengthAdjust="spacing" textLength="129" x="32.5" y="127.9951">Token&#30435;&#35222;&#12503;&#12525;&#12475;&#12473;</text></g><!--entity backend--><g id="elem_backend"><rect fill="#F1F1F1" height="36.2969" rx="2.5" ry="2.5" style="stroke:#181818;stroke-width:0.5;" width="82" x="703" y="105"/><text fill="#000000" font-family="sans-serif" font-size="14" lengthAdjust="spacing" textLength="62" x="713" y="127.9951">backend</text></g><g id="elem_GMN8"><path d="M654,201 L654,226.1328 A0,0 0 0 0 654,226.1328 L834,226.1328 A0,0 0 0 0 834,226.1328 L834,211 L824,201 L748,201 L744,141.064 L740,201 L654,201 A0,0 0 0 0 654,201 " fill="#FEFFDD" style="stroke:#181818;stroke-width:0.5;"/><path d="M824,201 L824,211 L834,211 L824,201 " fill="#FEFFDD" style="stroke:#181818;stroke-width:0.5;"/><text fill="#000000" font-family="sans-serif" font-size="13" lengthAdjust="spacing" textLength="159" x="660" y="218.0669">&#26989;&#21209;Web&#12450;&#12503;&#12522;&#12465;&#12540;&#12471;&#12519;&#12531;</text></g><!--entity svisitd--><g id="elem_svisitd"><rect fill="#F1F1F1" height="36.2969" rx="2.5" ry="2.5" style="stroke:#181818;stroke-width:0.5;" width="66" x="512" y="105"/><text fill="#000000" font-family="sans-serif" font-size="14" lengthAdjust="spacing" textLength="46" x="522" y="127.9951">svisitd</text></g><g id="elem_GMN13"><path d="M508.5,201 L508.5,226.1328 A0,0 0 0 0 508.5,226.1328 L581.5,226.1328 A0,0 0 0 0 581.5,226.1328 L581.5,211 L571.5,201 L549,201 L545,141.064 L541,201 L508.5,201 A0,0 0 0 0 508.5,201 " fill="#FEFFDD" style="stroke:#181818;stroke-width:0.5;"/><path d="M571.5,201 L571.5,211 L581.5,211 L571.5,201 " fill="#FEFFDD" style="stroke:#181818;stroke-width:0.5;"/><text fill="#000000" font-family="sans-serif" font-size="13" lengthAdjust="spacing" textLength="52" x="514.5" y="218.0669">&#35469;&#35388;&#20966;&#29702;</text></g><!--entity nginx--><g id="elem_nginx"><rect fill="#F1F1F1" height="36.2969" rx="2.5" ry="2.5" style="stroke:#181818;stroke-width:0.5;" width="59" x="400.5" y="105"/><text fill="#000000" font-family="sans-serif" font-size="14" lengthAdjust="spacing" textLength="39" x="410.5" y="127.9951">nginx</text></g><g id="elem_GMN17"><path d="M387,201 L387,226.1328 A0,0 0 0 0 387,226.1328 L473,226.1328 A0,0 0 0 0 473,226.1328 L473,211 L463,201 L434,201 L430,141.064 L426,201 L387,201 A0,0 0 0 0 387,201 " fill="#FEFFDD" style="stroke:#181818;stroke-width:0.5;"/><path d="M463,201 L463,211 L473,211 L463,201 " fill="#FEFFDD" style="stroke:#181818;stroke-width:0.5;"/><text fill="#000000" font-family="sans-serif" font-size="13" lengthAdjust="spacing" textLength="65" x="393" y="218.0669">&#25391;&#20998;&#20966;&#29702;&#31561;</text></g><!--link browser to SecureVisit--><g id="link_browser_SecureVisit"><path d="M289.258,123 C302.4445,123 309.631,123 322.8175,123 C329.4108,123 336.004,123 342.5973,123 C345.8939,123 349.1905,123 352.4871,123 C353.3113,123 348.1354,123 348.9596,123 " fill="none" id="browser-SecureVisit" style="stroke:#181818;stroke-width:1.0;"/><polygon fill="#181818" points="283.258,123,292.258,127,288.258,123,292.258,119,283.258,123" style="stroke:#181818;stroke-width:1.0;"/><polygon fill="#181818" points="354.9596,123,345.9596,119,349.9596,123,345.9596,127,354.9596,123" style="stroke:#181818;stroke-width:1.0;"/></g><!--SRC=[TL7BIWCn5DtFLrowzm_4XNv2HHTb5fbf78PEavAaLP4kJA1MLEXA4NS-wWDA4L-8_PlBs7w6oSnqB5Yp2DoSSy-3o4RCMaIG9goJi149tcRr3Pvm0KeG9Yr4cV9aoGfviyMPVQkg_OI2eA4YB4gerxBh9A9GGJr6yuZw5lKrcXSq_VJmjG94GfZ4TX4EF72dXkOy8mvHl_iE3mJVbLGKy2PlK3QzkfaDBUq2pGZr5-hFZAaSvdMzHTStD1Cq0tlF_QnMXuhSZ_4wpIfILYyJ1FdivoFZYaB0bU9Du3jGW3a6y7qtIaykjscGrR9vdb0_EqlzWURU5is9Jju9kQbR6bTfs1PqAvRnRttPSUC_vWKuDvyzdSqU9kdHS3he_VMnOYoAsTvogGmgMvoEqtul5vgEZfTbxdgruYDyM5rPWzf2UFy7]--></g></svg>
