<?xml version="1.0" encoding="us-ascii" standalone="no"?><svg xmlns="http://www.w3.org/2000/svg" xmlns:xlink="http://www.w3.org/1999/xlink" contentStyleType="text/css" height="284px" preserveAspectRatio="none" style="width:881px;height:284px;" version="1.1" viewBox="0 0 881 284" width="881px" zoomAndPan="magnify"><defs/><g><!--cluster client--><g id="cluster_client"><path d="M8.5,65 L114.5,65 A3.75,3.75 0 0 1 117,67.5 L124,87.2969 L296.5,87.2969 A2.5,2.5 0 0 1 299,89.7969 L299,149.5 A2.5,2.5 0 0 1 296.5,152 L8.5,152 A2.5,2.5 0 0 1 6,149.5 L6,67.5 A2.5,2.5 0 0 1 8.5,65 " fill="none" style="stroke:#000000;stroke-width:1.5;"/><line style="stroke:#000000;stroke-width:1.5;" x1="6" x2="124" y1="87.2969" y2="87.2969"/><text fill="#000000" font-family="sans-serif" font-size="14" font-weight="bold" lengthAdjust="spacing" textLength="105" x="10" y="79.9951">&#12463;&#12521;&#12452;&#12450;&#12531;&#12488;&#20596;</text></g><!--cluster server--><g id="cluster_server"><path d="M325.5,6 L401.5,6 A3.75,3.75 0 0 1 404,8.5 L411,28.2969 L871.5,28.2969 A2.5,2.5 0 0 1 874,30.7969 L874,274.5 A2.5,2.5 0 0 1 871.5,277 L325.5,277 A2.5,2.5 0 0 1 323,274.5 L323,8.5 A2.5,2.5 0 0 1 325.5,6 " fill="none" style="stroke:#000000;stroke-width:1.5;"/><line style="stroke:#000000;stroke-width:1.5;" x1="323" x2="411" y1="28.2969" y2="28.2969"/><text fill="#000000" font-family="sans-serif" font-size="14" font-weight="bold" lengthAdjust="spacing" textLength="75" x="327" y="20.9951">&#12469;&#12540;&#12496;&#12540;&#20596;</text></g><!--cluster Backend--><g id="cluster_Backend"><path d="M640.5,65 L709.5,65 A3.75,3.75 0 0 1 712,67.5 L719,87.2969 L847.5,87.2969 A2.5,2.5 0 0 1 850,89.7969 L850,234.5 A2.5,2.5 0 0 1 847.5,237 L640.5,237 A2.5,2.5 0 0 1 638,234.5 L638,67.5 A2.5,2.5 0 0 1 640.5,65 " fill="none" style="stroke:#000000;stroke-width:1.5;"/><line style="stroke:#000000;stroke-width:1.5;" x1="638" x2="719" y1="87.2969" y2="87.2969"/><text fill="#000000" font-family="sans-serif" font-size="14" font-weight="bold" lengthAdjust="spacing" textLength="68" x="642" y="79.9951">Backend</text></g><!--cluster SecureVisit--><g id="cluster_SecureVisit"><path d="M357.5,57 L450.5,57 A3.75,3.75 0 0 1 453,59.5 L460,79.2969 L603.5,79.2969 A2.5,2.5 0 0 1 606,81.7969 L606,242.5 A2.5,2.5 0 0 1 603.5,245 L357.5,245 A2.5,2.5 0 0 1 355,242.5 L355,59.5 A2.5,2.5 0 0 1 357.5,57 " fill="none" style="stroke:#000000;stroke-width:1.5;"/><line style="stroke:#000000;stroke-width:1.5;" x1="355" x2="460" y1="79.2969" y2="79.2969"/><text fill="#000000" font-family="sans-serif" font-size="14" font-weight="bold" lengthAdjust="spacing" textLength="92" x="359" y="71.9951">SecureVisit</text></g><!--entity browser--><g id="elem_browser"><rect fill="#F1F1F1" height="36.2969" rx="2.5" ry="2.5" style="stroke:#181818;stroke-width:0.5;" width="76" x="207" y="100"/><text fill="#000000" font-family="sans-serif" font-size="14" lengthAdjust="spacing" textLength="56" x="217" y="122.9951">&#12502;&#12521;&#12454;&#12470;</text></g><!--entity token--><g id="elem_token"><rect fill="#F1F1F1" height="36.2969" rx="2.5" ry="2.5" style="stroke:#181818;stroke-width:0.5;" width="149" x="22.5" y="100"/><text fill="#000000" font-family="sans-serif" font-size="14" lengthAdjust="spacing" textLength="129" x="32.5" y="122.9951">Token&#30435;&#35222;&#12503;&#12525;&#12475;&#12473;</text></g><!--entity backend--><g id="elem_backend"><rect fill="#F1F1F1" height="36.2969" rx="2.5" ry="2.5" style="stroke:#181818;stroke-width:0.5;" width="82" x="703" y="100"/><text fill="#000000" font-family="sans-serif" font-size="14" lengthAdjust="spacing" textLength="62" x="713" y="122.9951">backend</text></g><g id="elem_GMN8"><path d="M654,196 L654,221.1328 A0,0 0 0 0 654,221.1328 L834,221.1328 A0,0 0 0 0 834,221.1328 L834,206 L824,196 L748,196 L744,136.064 L740,196 L654,196 A0,0 0 0 0 654,196 " fill="#FEFFDD" style="stroke:#181818;stroke-width:0.5;"/><path d="M824,196 L824,206 L834,206 L824,196 " fill="#FEFFDD" style="stroke:#181818;stroke-width:0.5;"/><text fill="#000000" font-family="sans-serif" font-size="13" lengthAdjust="spacing" textLength="159" x="660" y="213.0669">&#26989;&#21209;Web&#12450;&#12503;&#12522;&#12465;&#12540;&#12471;&#12519;&#12531;</text></g><!--entity svisitd--><g id="elem_svisitd"><rect fill="#F1F1F1" height="36.2969" rx="2.5" ry="2.5" style="stroke:#181818;stroke-width:0.5;" width="66" x="512" y="100"/><text fill="#000000" font-family="sans-serif" font-size="14" lengthAdjust="spacing" textLength="46" x="522" y="122.9951">svisitd</text></g><g id="elem_GMN13"><path d="M508.5,196 L508.5,221.1328 A0,0 0 0 0 508.5,221.1328 L581.5,221.1328 A0,0 0 0 0 581.5,221.1328 L581.5,206 L571.5,196 L549,196 L545,136.064 L541,196 L508.5,196 A0,0 0 0 0 508.5,196 " fill="#FEFFDD" style="stroke:#181818;stroke-width:0.5;"/><path d="M571.5,196 L571.5,206 L581.5,206 L571.5,196 " fill="#FEFFDD" style="stroke:#181818;stroke-width:0.5;"/><text fill="#000000" font-family="sans-serif" font-size="13" lengthAdjust="spacing" textLength="52" x="514.5" y="213.0669">&#35469;&#35388;&#20966;&#29702;</text></g><!--entity nginx--><g id="elem_nginx"><rect fill="#F1F1F1" height="36.2969" rx="2.5" ry="2.5" style="stroke:#181818;stroke-width:0.5;" width="59" x="400.5" y="100"/><text fill="#000000" font-family="sans-serif" font-size="14" lengthAdjust="spacing" textLength="39" x="410.5" y="122.9951">nginx</text></g><g id="elem_GMN17"><path d="M387,196 L387,221.1328 A0,0 0 0 0 387,221.1328 L473,221.1328 A0,0 0 0 0 473,221.1328 L473,206 L463,196 L434,196 L430,136.064 L426,196 L387,196 A0,0 0 0 0 387,196 " fill="#FEFFDD" style="stroke:#181818;stroke-width:0.5;"/><path d="M463,196 L463,206 L473,206 L463,196 " fill="#FEFFDD" style="stroke:#181818;stroke-width:0.5;"/><text fill="#000000" font-family="sans-serif" font-size="13" lengthAdjust="spacing" textLength="65" x="393" y="213.0669">&#25391;&#20998;&#20966;&#29702;&#31561;</text></g><!--link browser to SecureVisit--><g id="link_browser_SecureVisit"><path d="M289.258,118 C302.4445,118 309.631,118 322.8175,118 C329.4108,118 336.004,118 342.5973,118 C345.8939,118 349.1905,118 352.4871,118 C353.3113,118 348.1354,118 348.9596,118 " fill="none" id="browser-SecureVisit" style="stroke:#181818;stroke-width:1.0;"/><polygon fill="#181818" points="283.258,118,292.258,122,288.258,118,292.258,114,283.258,118" style="stroke:#181818;stroke-width:1.0;"/><polygon fill="#181818" points="354.9596,118,345.9596,114,349.9596,118,345.9596,122,354.9596,118" style="stroke:#181818;stroke-width:1.0;"/></g><!--SRC=[TL7BIWCn5DtFLrowzm_4XNv2HHTb5fbf78PEavAaLP4kJA1MLEXA4NS-gXPAARuG-pUNiVqCavbfBLYp2DoSa_D8P2rc3I987JP9M8i4RxBg5a-u02K8anQYJ7bomGfvlS6PFIkhmuI2eA4YB4gerx3NIKIXX7g4vXdrFUfRD2zekkdnQmc8X329xKKuyi2j2fhBZDX7_UuxF11yNr9HmDkyHjdqvcxMjxGhD4FKNwW_CwPocDVsbbtVq4pGzEm-zxDQBIfolpdHjQIikWWHvBEVZumh2W5NYjU1xq41vXZ0zyCmFRlUfK7Mp4OQe1uxL_s1vj5spObEtWcvgRtiNQPXKz2TMCQ_Zo1RRlp7lm3d_hF1nUnfafxqfxtENoihngAO7QoMog15aVDHsktaGjFXwQhORQzIV8SFwsiRK5aAx_y0]--></g></svg>
